<?xml version="1.0" encoding="utf-8"?>
<!-- Generator: Adobe Illustrator 22.1.0, SVG Export Plug-In . SVG Version: 6.00 Build 0)  -->
<svg version="1.1" id="Layer_1" xmlns="http://www.w3.org/2000/svg" xmlns:xlink="http://www.w3.org/1999/xlink" x="0px" y="0px"
	 viewBox="0 0 16 16" style="enable-background:new 0 0 16 16;" xml:space="preserve">
<style type="text/css">
	.st0{fill:#DD3A99;}
	.st1{fill:#44469D;}
	.st2{fill:none;stroke:#FFFFFF;stroke-width:0.25;stroke-linecap:round;stroke-linejoin:round;}
</style>
<g>
	<path class="st0" d="M3.7,8.4C4.4,7,5.3,5.7,6.4,4.6c0.1-0.1,0.2-0.2,0.2-0.2C5.8,5.2,5.3,6.4,5.3,7.7c0,1.7,0,3.5,0,5.2
		c0,1,0.8,1.7,1.7,1.8c-0.9,0-1.9,0-2.8,0c-1.1,0-1.9-1-1.8-2C2.6,11.2,3,9.9,3.6,8.6C3.6,8.5,3.6,8.5,3.7,8.4z"/>
	<path class="st1" d="M14.2,13.2c0,0.8-0.6,1.4-1.4,1.4c-0.3,0-0.6,0-1,0c-0.7,0-1.5,0-2.2,0c0.8,0,1.4-0.7,1.4-1.4
		c0-0.1,0-0.2,0-0.4c1.1,0,2.1,0,3.2,0C14.2,13,14.2,13.1,14.2,13.2z"/>
	<path class="st1" d="M10.6,4.6C9.7,4.7,8.8,4.9,7.9,5.2C7.5,5.3,7.1,5.4,6.7,5.6C6.2,5.8,5.8,6.1,5.5,6.3c0.2-0.8,0.7-1.6,1.3-2.2
		c1.6-1.4,3.4-2.5,5.4-3.2C11.3,2,10.7,3.2,10.6,4.6z"/>
	<path class="st2" d="M14.2,12.9c0,0.1,0,0.2,0,0.4c0,0.8-0.6,1.4-1.4,1.4c-0.3,0-0.6,0-1,0c-0.7,0-1.5,0-2.2,0c0,0,0,0-0.1,0
		c-0.8,0-1.6,0-2.5,0c-1,0-1.8-0.8-1.8-1.8c0-1.7,0-3.5,0-5.2c0-1.3,0.6-2.6,1.5-3.5c1.6-1.4,3.4-2.5,5.4-3.2"/>
</g>
</svg>
